# xmcd CD database file
#
# Track frame offsets:
#	150
#	25710
#	41235
#	59392
#	76715
#	101162
#	116950
#	131992
#	148562
#	152302
#	167617
#	185970
#	201420
#	215537
#	228770
#	240442
#
# Disc length: 3259 seconds
#
# Revision: 0
# Processed by: cddbd v1.5.2PL0 Copyright (c) Steve Scherf et al.
# Submitted via: CDex 1.51
#
DISCID=e00cb910
DTITLE=Count basie - Class of 54
DYEAR=1989
DGENRE=Jazz
TTITLE0=In Case You Didn't Know
TTITLE1=These Foolish Things
TTITLE2=Peter Pan
TTITLE3=Ain't It The Truth
TTITLE4=Ingin The Ooh
TTITLE5=Confessin'
TTITLE6=These Foolish Things (alt take)
TTITLE7=In Case You Didn't Know (alt take)
TTITLE8=One O Clock Jump
TTITLE9=You For Me
TTITLE10=Bubbles
TTITLE11=You're Not The Kind
TTITLE12=Jenesy
TTITLE13=Two For The Blues
TTITLE14=Blee Blop Blues
TTITLE15=Perdido
EXTD=YEAR: 1989
EXTT0=
EXTT1=
EXTT2=
EXTT3=
EXTT4=
EXTT5=
EXTT6=
EXTT7=
EXTT8=
EXTT9=
EXTT10=
EXTT11=
EXTT12=
EXTT13=
EXTT14=
EXTT15=
PLAYORDER=
